HIERARCHY
ROOT Hips
{
	OFFSET 0.00000 0.00000 0.00000
	CHANNELS 6 Xposition Yposition Zposition Zrotation Yrotation Xrotation 
	JOINT LHipJoint
	{
		OFFSET 0 0 0
		CHANNELS 3 Zrotation Yrotation Xrotation
		JOINT LeftHip
		{
			OFFSET 1.53139 -1.83434 0.76626
			CHANNELS 3 Zrotation Yrotation Xrotation
			JOINT LeftKnee
			{
				OFFSET 2.56112 -7.03663 0.00000
				CHANNELS 3 Zrotation Yrotation Xrotation
				JOINT LeftAnkle
				{
					OFFSET 2.59983 -7.14299 0.00000
					CHANNELS 3 Zrotation Yrotation Xrotation
					JOINT LeftToe
					{
						OFFSET 0.13742 -0.37757 2.00054
						CHANNELS 3 Zrotation Yrotation Xrotation
						End Site
						{
							OFFSET 0.00000 -0.00000 1.02897
						}
					}
				}
			}
		}
	}
	JOINT RHipJoint
	{
		OFFSET 0 0 0
		CHANNELS 3 Zrotation Yrotation Xrotation
		JOINT RightHip
		{
			OFFSET -1.40122 -1.83435 0.76627
			CHANNELS 3 Zrotation Yrotation Xrotation
			JOINT RightKnee
			{
				OFFSET -2.54052 -6.98003 0.00000
				CHANNELS 3 Zrotation Yrotation Xrotation
				JOINT RightAnkle
				{
					OFFSET -2.63179 -7.23079 0.00000
					CHANNELS 3 Zrotation Yrotation Xrotation
					JOINT RightToe
					{
						OFFSET -0.24131 -0.66299 2.03908
						CHANNELS 3 Zrotation Yrotation Xrotation
						End Site
						{
							OFFSET -0.00000 -0.00000 1.07391
						}
					}
				}
			}
		}
	}
	JOINT lowerback
	{
		OFFSET 0 0 0
		CHANNELS 3 Zrotation Yrotation Xrotation
		JOINT Chest
		{
			OFFSET 0.01174 2.10302 -0.29778
			CHANNELS 3 Zrotation Yrotation Xrotation
			JOINT Chest2
			{
				OFFSET 0.00772 2.13227 -0.01247
				CHANNELS 3 Zrotation Yrotation Xrotation
				JOINT lowerneck
				{
					OFFSET 0 0 0
					CHANNELS 3 Zrotation Yrotation Xrotation
					JOINT Neck
					{
						OFFSET -0.09219 1.60848 0.31481
						CHANNELS 3 Zrotation Yrotation Xrotation
						JOINT Head
						{
							OFFSET 0.13974 1.65456 -0.31134
							CHANNELS 3 Zrotation Yrotation Xrotation
							End Site
							{
								OFFSET 0.04742 1.69515 -0.14578
							}
						}
					}
				}
				JOINT LeftCollar
				{
					OFFSET 0 0 0
					CHANNELS 3 Zrotation Yrotation Xrotation
					JOINT LeftShoulder
					{
						OFFSET 3.24909 1.02882 -0.23993
CHANNELS 3 Zrotation Xrotation Yrotation
						JOINT LeftElbow
						{
OFFSET 0 -5.329550 -0.000000
CHANNELS 3 Zrotation Xrotation Yrotation
							JOINT LeftWrist
							{
OFFSET 0 -3.692320 -0.000000
CHANNELS 3 Zrotation Xrotation Yrotation
								JOINT lhand
								{
									OFFSET 0 0 0
CHANNELS 3 Zrotation Xrotation Yrotation
									JOINT LFingers
									{
OFFSET 0 -0.536600 -0.000000
CHANNELS 3 Zrotation Xrotation Yrotation
										End Site
										{
OFFSET 0 -0.432620 -0.000000
										}
									}
								}
								JOINT LThumb
								{
OFFSET 0 0.000000 0.000000
CHANNELS 3 Zrotation Xrotation Yrotation
									End Site
									{
OFFSET 0 -0.439220 0.439220
									}
								}
							}
						}
					}
				}
				JOINT RightCollar
				{
					OFFSET 0 0 0
					CHANNELS 3 Zrotation Yrotation Xrotation
					JOINT RightShoulder
					{
						OFFSET -3.21387 0.93002 -0.34594
CHANNELS 3 Zrotation Xrotation Yrotation
						JOINT RightElbow
						{
OFFSET 0 -5.234310 0.000000
CHANNELS 3 Zrotation Xrotation Yrotation
							JOINT RightWrist
							{
OFFSET 0 -3.553010 -0.000000
CHANNELS 3 Zrotation Xrotation Yrotation
								JOINT rhand
								{
									OFFSET 0 0 0
CHANNELS 3 Zrotation Xrotation Yrotation
									JOINT RFingers
									{
OFFSET 0 -0.772520 -0.000000
CHANNELS 3 Zrotation Xrotation Yrotation
										End Site
										{
OFFSET 0 -0.622830 -0.000000
										}
									}
								}
								JOINT RThumb
								{
OFFSET 0 0.000000 0.000000
CHANNELS 3 Zrotation Xrotation Yrotation
									End Site
									{
OFFSET 0 -0.632340 0.632340
									}
								}
							}
						}
					}
				}
			}
		}
	}
}
MOTION
Frames: 11
Frame Time: 0.008333333333333333
-13.440800 17.808200 -13.654900 5.168700 -2.193500 -0.090100 0.000000 0.000000 0.000000 -28.744900 0.215000 16.161600 0.678100 5.265300 14.666800 -0.142100 -6.700700 1.756800 1.198800 -6.947000 -19.558600 0.000000 0.000000 0.000000 13.104900 7.451500 -22.900700 -1.927800 -8.714100 24.905100 0.032100 4.110000 -1.280000 -0.030600 -1.129600 3.105500 -6.070100 -0.148100 10.516300 -0.239300 -0.934200 0.542800 3.308600 -0.318500 -5.246200 -11.720200 -5.312400 -21.882800 8.604500 -6.143900 27.961200 4.303200 -2.775000 13.822800 -0.000000 0.000000 0.000000 3.310000 -5.844200 -24.413900 18.126300 -28.318500 4.609000 22.453900 15.302500 -25.826900 0.000000 0.000000 0.000000 -7.125000 0.000000 0.000000 -8.203000 57.432600 2.508900 -0.000000 0.000000 0.000000 1.771200 4.518500 5.393900 -12.445200 -20.468900 -2.255600 -16.253500 8.530600 -10.636100 0.000000 0.000000 0.000000 7.125000 0.000000 -0.000000 7.632600 18.964900 4.780200
-13.459381 17.819039 -13.559270 5.076910 -2.153489 -0.164795 0.000000 0.000000 0.000000 -28.704889 -0.053247 15.849006 0.804760 5.713473 15.958487 -0.144825 -6.744179 2.168678 1.325894 -7.286536 -20.569652 0.000000 0.000000 0.000000 13.327190 7.159903 -22.605758 -1.956415 -8.774550 25.092768 0.042877 4.686939 -1.422144 -0.020257 -0.900806 2.476039 -5.955332 -0.158258 10.511097 -0.244627 -0.931970 0.594517 3.237497 -0.322959 -5.190581 -11.657396 -5.324354 -22.023891 8.522682 -6.143776 28.015147 4.259844 -2.776486 13.869934 0.000000 0.000000 0.000000 3.310000 -5.717726 -24.235832 17.985704 -28.138636 4.542604 22.607750 15.279336 -25.591727 0.000000 0.000000 0.000000 -7.125000 0.000000 0.000000 -7.931656 57.224245 2.386142 0.000000 0.000000 0.000000 1.831402 4.461766 5.075484 -12.415718 -20.425173 -2.245319 -15.665103 9.611703 -9.666731 0.000000 0.000000 0.000000 7.125000 0.000000 0.000000 8.067333 19.993604 4.864248
-13.476291 17.829878 -13.465765 4.993667 -2.213077 -0.208719 0.000000 0.000000 0.000000 -28.699112 -0.297001 15.454122 0.939132 6.163651 17.262922 -0.141964 -6.677652 2.627825 1.431001 -7.562737 -21.394184 0.000000 0.000000 0.000000 13.541770 6.895688 -22.354027 -1.980279 -8.824854 25.248995 0.055516 5.270682 -1.529028 -0.014521 -0.776911 2.135156 -5.853622 -0.139099 10.489565 -0.245298 -0.891424 0.637210 3.172959 -0.307867 -5.138782 -11.613524 -5.330650 -22.186517 8.449577 -6.128875 28.079765 4.226468 -2.772172 13.925471 0.000000 0.000000 0.000000 3.283525 -5.595811 -23.986623 17.858692 -27.975818 4.482797 22.657013 15.390267 -25.535554 0.000000 0.000000 0.000000 -7.125000 0.000000 0.000000 -7.853326 57.177249 2.353170 0.000000 0.000000 0.000000 1.872506 4.366167 4.774352 -12.350283 -20.327827 -2.222623 -15.295622 10.438628 -9.025737 0.000000 0.000000 0.000000 7.125000 0.000000 0.000000 8.341352 20.672496 4.911102
-13.490536 17.840717 -13.375647 4.924050 -2.431465 -0.203578 0.000000 0.000000 0.000000 -28.747918 -0.501701 14.928033 1.085797 6.617027 18.587683 -0.130196 -6.435727 3.162338 1.501051 -7.737956 -21.921326 0.000000 0.000000 0.000000 13.744054 6.675132 -22.171190 -1.996568 -8.858981 25.355092 0.071124 5.865273 -1.579692 -0.016131 -0.820267 2.254384 -5.772733 -0.073198 10.441998 -0.238547 -0.789786 0.665515 3.118888 -0.261600 -5.093072 -11.599836 -5.327924 -22.383475 8.390366 -6.090412 28.161397 4.209002 -2.758608 13.994406 0.000000 0.000000 0.000000 3.214837 -5.481166 -23.623984 17.753338 -27.840177 4.433495 22.539519 15.715000 -25.764782 0.000000 0.000000 0.000000 -7.125000 0.000000 0.000000 -8.082739 57.387524 2.463355 0.000000 0.000000 0.000000 1.883159 4.208600 4.500779 -12.227525 -20.144990 -2.180135 -15.275183 10.860292 -8.908305 0.000000 0.000000 0.000000 7.125000 0.000000 0.000000 8.359127 20.793644 4.898652
-13.510654 17.854564 -13.280468 4.877877 -2.325943 -0.320142 0.000000 0.000000 0.000000 -28.721046 -0.746842 14.556546 1.245737 7.066058 19.915739 -0.102147 -6.030988 4.189114 1.439847 -7.582913 -21.455824 0.000000 0.000000 0.000000 13.901744 6.386489 -21.732672 -2.007892 -8.882556 25.428531 0.067395 5.998206 -1.902606 -0.021943 -0.948611 2.607425 -5.779315 -0.090138 10.495271 -0.202909 -0.813100 0.710149 3.163843 -0.274109 -5.072955 -11.655046 -5.323385 -22.452712 8.406450 -6.059398 28.173177 4.231260 -2.747670 14.013065 0.000000 0.000000 0.000000 3.112775 -5.306170 -23.306561 17.629888 -27.680519 4.376077 22.466382 15.985494 -25.930124 0.000000 0.000000 0.000000 -7.125000 0.000000 0.000000 -8.237286 57.541267 2.541360 0.000000 0.000000 0.000000 1.851700 4.122939 4.273423 -12.136996 -20.009756 -2.149010 -15.169135 11.174909 -8.877103 0.000000 0.000000 0.000000 7.125000 0.000000 0.000000 8.436013 20.830806 4.937578
-13.531482 17.868966 -13.184744 4.832706 -2.146772 -0.460774 0.000000 0.000000 0.000000 -28.667684 -0.993168 14.195084 1.413901 7.516489 21.256751 -0.067206 -5.587359 5.370084 1.301435 -7.208188 -20.341456 0.000000 0.000000 0.000000 14.047003 6.092736 -21.238257 -2.016297 -8.899994 25.482900 0.058761 6.004070 -2.278594 -0.031647 -1.135009 3.120442 -5.793757 -0.123893 10.570748 -0.163015 -0.860856 0.756838 3.221526 -0.298209 -5.060560 -11.728486 -5.318897 -22.472583 8.454925 -6.036368 28.152199 4.267601 -2.738480 14.010226 0.000000 0.000000 0.000000 3.012984 -5.118389 -23.036457 17.500179 -27.512417 4.315927 22.413515 16.209366 -26.044488 0.000000 0.000000 0.000000 -7.125000 0.000000 0.000000 -8.347128 57.646962 2.596563 0.000000 0.000000 0.000000 1.808984 4.070162 4.093307 -12.070598 -19.910437 -2.126249 -15.033528 11.408387 -8.877900 0.000000 0.000000 0.000000 7.125000 0.000000 0.000000 8.533216 20.836685 4.994658
-13.546718 17.881539 -13.094192 4.755347 -2.089667 -0.536089 0.000000 0.000000 0.000000 -28.592741 -1.181022 13.639761 1.605161 7.981447 22.662402 -0.021187 -5.194991 6.593641 0.956881 -6.177625 -17.317528 0.000000 0.000000 0.000000 14.196704 5.880604 -20.852268 -2.016916 -8.901232 25.486740 0.054673 6.064644 -2.504353 -0.055617 -1.498391 4.121770 -5.710329 -0.115531 10.604318 -0.146478 -0.840108 0.788426 3.189071 -0.290591 -5.048792 -11.789803 -5.317596 -22.430900 8.557430 -6.044482 28.066479 4.316221 -2.734516 13.972011 0.000000 0.000000 0.000000 2.978981 -4.958407 -22.949188 17.365714 -27.337260 4.254052 22.398898 16.268640 -25.986206 0.000000 0.000000 0.000000 -7.125000 0.000000 0.000000 -8.335794 57.584035 2.580336 0.000000 0.000000 0.000000 1.773061 4.079515 4.093988 -12.082737 -19.928584 -2.130398 -14.875714 11.375685 -8.913080 0.000000 0.000000 0.000000 7.125000 0.000000 0.000000 8.645259 20.808442 5.067310
-13.564102 17.892937 -13.004312 4.627252 -2.012227 -0.601706 0.000000 0.000000 0.000000 -28.431659 -1.357902 13.035077 1.809776 8.448619 24.091105 0.032315 -4.933525 7.933066 0.581927 -4.634127 -12.909652 0.000000 0.000000 0.000000 14.423046 5.689443 -20.452589 -2.012838 -8.892740 25.460313 0.051558 6.125419 -2.686120 -0.074351 -1.754461 4.827807 -5.599451 -0.118378 10.625304 -0.114035 -0.829157 0.823067 3.159100 -0.288644 -5.025984 -11.794176 -5.312134 -22.395156 8.601716 -6.049140 27.994047 4.331990 -2.730720 13.935776 0.000000 0.000000 0.000000 2.955481 -4.807284 -22.857859 17.233163 -27.163983 4.193352 22.314015 16.327779 -25.986244 0.000000 0.000000 0.000000 -7.125000 0.000000 0.000000 -8.427476 57.565334 2.605248 0.000000 0.000000 0.000000 1.746265 4.046821 4.047221 -12.053603 -19.884922 -2.120522 -14.824876 11.433013 -8.968293 0.000000 0.000000 0.000000 7.125000 0.000000 0.000000 8.680090 20.754562 5.098788
-13.583303 17.903343 -12.915000 4.456245 -1.917587 -0.659122 0.000000 0.000000 0.000000 -28.197725 -1.525503 12.388645 2.025687 8.917665 25.539305 0.092146 -4.782771 9.370490 0.181259 -2.656802 -7.331274 0.000000 0.000000 0.000000 14.714210 5.516021 -20.041330 -2.004786 -8.876017 25.408286 0.049267 6.186365 -2.830679 -0.088659 -1.919769 5.284093 -5.465359 -0.130703 10.635647 -0.068140 -0.826494 0.860291 3.131228 -0.291493 -4.993839 -11.750387 -5.303154 -22.364436 8.596761 -6.050874 27.932853 4.319974 -2.727066 13.901215 0.000000 0.000000 0.000000 2.940864 -4.663653 -22.763096 17.102229 -26.992295 4.133645 22.169703 16.386804 -26.035608 0.000000 0.000000 0.000000 -7.125000 0.000000 0.000000 -8.606287 57.584039 2.664955 0.000000 0.000000 0.000000 1.727188 3.978567 3.960324 -11.989561 -19.788982 -2.098782 -14.864515 11.566486 -9.040449 0.000000 0.000000 0.000000 7.125000 0.000000 0.000000 8.649618 20.678999 5.095443
-13.601469 17.911968 -12.823907 4.260372 -1.810831 -0.730607 0.000000 0.000000 0.000000 -27.931745 -1.668007 11.720218 2.265488 9.388663 27.026385 0.180117 -4.469953 10.836743 0.292284 -3.390875 -9.376774 0.000000 0.000000 0.000000 15.059989 5.298436 -19.602620 -1.990647 -8.846487 25.316289 0.048181 6.308874 -2.990228 -0.080971 -1.833883 5.046867 -5.297900 -0.150724 10.667412 -0.006165 -0.831411 0.873854 3.103012 -0.296983 -4.998104 -11.808994 -5.301351 -22.150746 8.633786 -6.054790 27.780520 4.339717 -2.733002 13.795500 0.000000 0.000000 0.000000 2.906261 -4.439794 -22.672296 17.002938 -26.861554 4.088755 22.074492 16.491773 -26.127181 0.000000 0.000000 0.000000 -7.125000 0.000000 0.000000 -8.752478 57.656727 2.726212 0.000000 0.000000 0.000000 1.647926 3.961540 4.018780 -11.918971 -19.682992 -2.074975 -14.889568 11.554894 -9.179969 0.000000 0.000000 0.000000 7.125000 0.000000 0.000000 8.627874 20.535326 5.110476
-13.619497 17.920511 -12.733101 4.060474 -1.750550 -0.798549 0.000000 0.000000 0.000000 -27.670551 -1.797715 11.037476 2.512451 9.854682 28.512528 0.275389 -4.084768 12.241972 0.383554 -3.974966 -11.006522 0.000000 0.000000 0.000000 15.411584 5.112223 -19.159180 -1.973706 -8.811015 25.205875 0.048197 6.435189 -3.115592 -0.075797 -1.776095 4.887261 -5.132257 -0.152913 10.692317 0.055872 -0.812310 0.890769 3.072232 -0.290811 -4.997132 -11.909837 -5.302553 -21.916053 8.718958 -6.064107 27.602985 4.384629 -2.739575 13.679320 0.000000 0.000000 0.000000 2.882388 -4.241068 -22.611301 16.892343 -26.715532 4.038947 22.041678 16.634257 -26.287911 0.000000 0.000000 0.000000 -7.125000 0.000000 0.000000 -8.865046 57.813826 2.795183 0.000000 0.000000 0.000000 1.565896 3.941871 4.112406 -11.869500 -19.608690 -2.058306 -14.884039 11.514254 -9.283063 0.000000 0.000000 0.000000 7.125000 0.000000 0.000000 8.628989 20.430363 5.131793
